<?xml version="1.0" encoding="UTF-8" standalone="no"?>
<svg width="21px" height="15px" viewBox="0 0 21 15" version="1.1" xmlns="http://www.w3.org/2000/svg" xmlns:xlink="http://www.w3.org/1999/xlink">
    <!-- Generator: Sketch 44 (41411) - http://www.bohemiancoding.com/sketch -->
    <title>Combined Shape</title>
    <desc>Created with Sketch.</desc>
    <defs></defs>
    <g id="注册-接入微信" stroke="none" stroke-width="1" fill="none" fill-rule="evenodd">
        <g id="注册1" transform="translate(-342.000000, -285.000000)" stroke="#ACB7BF" fill-rule="nonzero">
            <g id="Group-10" transform="translate(0.000000, 144.000000)">
                <g id="Group-3" transform="translate(342.000000, 141.000000)">
                    <path d="M1.3219612,6.04318572 C1.01465811,6.45688982 0.763613947,6.82891761 0.611929667,7.08483672 C0.462198767,7.33746012 0.462738498,7.66541 0.61326734,7.91741141 C0.765980409,8.17306945 1.018428,8.5448512 1.3271265,8.95828669 C1.92342195,9.75689666 2.58600558,10.511228 3.30194719,11.1961212 C5.56660937,13.362571 7.98099303,14.5 10.5,14.5 C13.0067095,14.5 15.4170475,13.3630283 17.6866455,11.1966537 C18.4038831,10.5120367 19.0685913,9.75801582 19.6677095,8.95974973 C19.9778031,8.54658059 20.2316534,8.17504271 20.3853942,7.91964346 C20.5377068,7.6666169 20.538248,7.33624157 20.3867327,7.08258859 C20.2340196,6.82693055 19.981572,6.4551488 19.6728735,6.04171331 C19.0765781,5.24310334 18.4139944,4.48877195 17.6980528,3.80387883 C15.4333906,1.63742904 13.019007,0.5 10.5,0.5 C7.96869278,0.5 5.55027058,1.63788307 3.290539,3.80441341 C2.57589257,4.48958468 1.91543328,5.24422909 1.3219612,6.04318572 Z" id="Combined-Shape"></path>
                </g>
            </g>
        </g>
    </g>
</svg>