<?xml version="1.0" encoding="UTF-8" standalone="no"?>
<svg width="16px" height="16px" viewBox="0 0 16 16" version="1.1" xmlns="http://www.w3.org/2000/svg" xmlns:xlink="http://www.w3.org/1999/xlink">
    <!-- Generator: Sketch 44 (41411) - http://www.bohemiancoding.com/sketch -->
    <title>Group 6</title>
    <desc>Created with Sketch.</desc>
    <defs></defs>
    <g id="注册-接入微信" stroke="none" stroke-width="1" fill="none" fill-rule="evenodd">
        <g id="错误提示&amp;交互" transform="translate(-347.000000, -291.000000)">
            <g id="Group-4-Copy-7" transform="translate(0.000000, 279.000000)">
                <g id="Group-6" transform="translate(347.000000, 12.000000)">
                    <rect id="Rectangle-9" fill="#D8D8D8" opacity="0" x="0" y="0" width="16" height="16"></rect>
                    <path d="M7.28854524,8 L0.150324546,15.1382207 C-0.0517386662,15.3402839 -0.0478907733,15.6549652 0.148572035,15.851428 C0.339289157,16.0421451 0.664348617,16.0471061 0.861779311,15.8496755 L8,8.71145476 L15.1382207,15.8496755 C15.3402839,16.0517387 15.6549652,16.0478908 15.851428,15.851428 C16.0421451,15.6607108 16.0471061,15.3356514 15.8496755,15.1382207 L8.71145476,8 L15.8496755,0.861779311 C16.0517387,0.659716098 16.0478908,0.345034843 15.851428,0.148572035 C15.6607108,-0.0421450869 15.3356514,-0.0471061473 15.1382207,0.150324546 L8,7.28854524 L0.861779311,0.150324546 C0.659716098,-0.0517386662 0.345034843,-0.0478907733 0.148572035,0.148572035 C-0.0421450869,0.339289157 -0.0471061473,0.664348617 0.150324546,0.861779311 L7.28854524,8 Z" id="Combined-Shape" fill="#FFFFFF"></path>
                </g>
            </g>
        </g>
    </g>
</svg>