<?xml version="1.0" encoding="UTF-8" standalone="no"?>
<svg width="21px" height="15px" viewBox="0 0 21 15" version="1.1" xmlns="http://www.w3.org/2000/svg" xmlns:xlink="http://www.w3.org/1999/xlink">
    <!-- Generator: Sketch 44 (41411) - http://www.bohemiancoding.com/sketch -->
    <title>Group 3</title>
    <desc>Created with Sketch.</desc>
    <defs></defs>
    <g id="注册-接入微信" stroke="none" stroke-width="1" fill="none" fill-rule="evenodd">
        <g id="注册2" transform="translate(-342.000000, -285.000000)">
            <g id="Group-10" transform="translate(0.000000, 144.000000)">
                <g id="Group-3" transform="translate(342.000000, 141.000000)">
                    <path d="M0.920580001,5.7450362 C1.50332918,4.96051519 2.17927917,4.17716181 2.94450688,3.44349545 C5.17703275,1.30304874 7.70970083,0 10.5,0 C13.2777613,0 15.8068729,1.3027704 18.0436851,3.44257792 C18.8101156,4.17577037 19.4881498,4.9585993 20.0735136,5.74256869 C20.4287417,6.21832065 20.678242,6.59558921 20.8159833,6.82618288 C21.0621381,7.23827238 21.0612729,7.76634825 20.8137693,8.17750928 C20.6752095,8.40768934 20.4243623,8.78454508 20.0676088,9.25988394 C19.4796314,10.043306 18.7995129,10.8256145 18.0318784,11.5583362 C15.7907761,13.6975111 13.2652258,15 10.5,15 C7.72223867,15 5.19312707,13.6972296 2.95631494,11.5574221 C2.18988443,10.8242296 1.5118502,10.0414007 0.926486392,9.25743131 C0.571258259,8.78167935 0.321757987,8.40441079 0.184016702,8.17381712 C-0.0605365074,7.76440885 -0.0613991878,7.24022985 0.181804918,6.82990006 C0.31872583,6.59888945 0.566877821,6.22120468 0.920580001,5.7450362 Z" id="Combined-Shape" fill="#1695F0" fill-rule="nonzero"></path>
                    <circle id="Oval" fill="#FFFFFF" cx="10.5" cy="7.5" r="3.5"></circle>
                </g>
            </g>
        </g>
    </g>
</svg>